<svg width="976.6800000000001" height="840.3" xmlns="http://www.w3.org/2000/svg" xmlns:xlink="http://www.w3.org/1999/xlink">
 <defs>
  <linearGradient y2="-0.000088" x2="0.499923" y1="0.999814" x1="0.499923" id="40cb4f85-3adc-4f91-8af7-dda2654c63b5">
   <stop stop-opacity="0.25" stop-color="gray" offset="0"/>
   <stop stop-opacity="0.12" stop-color="gray" offset="0.54"/>
   <stop stop-opacity="0.1" stop-color="gray" offset="1"/>
  </linearGradient>
  <linearGradient xlink:href="#40cb4f85-3adc-4f91-8af7-dda2654c63b5" y2="221.19" x2="582.97" y1="706.75" x1="582.97" id="f74e0c91-e046-415c-8916-3730a2c068f9"/>
 </defs>
 <title>gaming</title>
 <g>
  <title>background</title>
  <rect fill="none" id="canvas_background" height="402" width="582" y="-1" x="-1"/>
 </g>
 <g>
  <title>Layer 1</title>
  <path id="svg_1" opacity="0.1" fill="#7ca9e9" d="m890.339996,455.97c-37.95,64.71 -32.78,151.72 -18,220.09c4.94,22.89 10.69,47 5.57,72.88c-6.26,31.6 -27.3,56.75 -48.39,71.31c-38.44,26.55 -81.74,26.74 -112.74,0.5c-26.79,-22.68 -43.93,-62.84 -71.32,-84.27c-45.83,-35.85 -110.08,-12.18 -166.21,23.41c-39.71,25.18 -83.48,56.95 -119.38,40.25c-25.26,-11.75 -40.48,-46.09 -47.16,-83.67c-3.23,-18.14 -5,-38 -12.95,-51.71c-4.73,-8.15 -11.34,-13.53 -18.21,-17.91c-62.77,-40 -149.46,-3.61 -209.85,-49.08c-40.79,-30.71 -63.06,-95.42 -69.43,-165s1.45,-144.33 10.86,-218c6.69,-52.33 15.46,-108.4 41.74,-151.41c27.8,-45.5 70.64,-66.46 107.44,-63s68.34,28 95.35,58.18c33.75,37.74 63.91,86.2 108.32,97.67c30.25,7.81 63.66,-2.67 96.08,-8.89c54.19,-10.4 107.39,-8.86 160.2,-6.5c50.56,2.26 101.41,5.34 148.2,23.55c33.11,12.89 58.17,40.64 89,58.38c20.07,11.56 42.95,12.6 61.55,28.19c22.92,19.21 42.37,55.15 32.14,101.3c-9.73,43.91 -42.63,69.38 -62.81,103.73z"/>
  <path id="svg_2" stroke-width="2" stroke-miterlimit="10" stroke="#535461" fill="none" d="m162.749996,659.98s-66.72,-110.51 -48,-209.67c7.87,-41.62 2.81,-84.68 -15.86,-122.7a329,329 0 0 0 -31.43,-51.3"/>
  <path id="svg_3" fill="#7ca9e9" d="m78.939996,213.76c3.85,14.68 -11.55,64.22 -11.55,64.22s-37.75,-35.59 -41.61,-50.27a27.48,27.48 0 0 1 53.16,-14l0,0.05z"/>
  <path id="svg_4" fill="#7ca9e9" d="m144.219996,283.54c-4.74,14.42 -44.6,47.63 -44.6,47.63s-12.35,-50.39 -7.6,-64.81a27.48,27.48 0 1 1 52.2,17.18z"/>
  <path id="svg_5" fill="#7ca9e9" d="m178.769996,422.99c-11.37,10 -62.55,18.6 -62.55,18.6s14.78,-49.73 26.15,-59.78a27.48,27.48 0 0 1 36.39,41.18l0.01,0z"/>
  <path id="svg_6" fill="#7ca9e9" d="m181.159996,534.39c-9.51,11.83 -58.5,28.9 -58.5,28.9s6.16,-51.52 15.67,-63.34a27.48,27.48 0 0 1 42.83,34.44z"/>
  <path id="svg_7" fill="#7ca9e9" d="m44.559996,348.66c13.21,7.46 65,5.18 65,5.18s-24.8,-45.57 -38,-53a27.48,27.48 0 1 0 -27,47.85l0,-0.03z"/>
  <path id="svg_8" fill="#7ca9e9" d="m48.999996,478.91c14.84,3.17 63.62,-14.52 63.62,-14.52s-37.28,-36.06 -52.15,-39.24a27.48,27.48 0 0 0 -11.47,53.75l0,0.01z"/>
  <path id="svg_9" fill="#7ca9e9" d="m70.689996,604.91c14.09,5.63 65.16,-3.56 65.16,-3.56s-30.67,-41.85 -44.76,-47.48a27.48,27.48 0 0 0 -20.39,51l-0.01,0.04z"/>
  <path id="svg_10" fill="#7ca9e9" d="m78.939996,213.76c3.85,14.68 -11.55,64.22 -11.55,64.22s-37.75,-35.59 -41.61,-50.27a27.48,27.48 0 0 1 53.16,-14l0,0.05z"/>
  <path id="svg_11" fill="#7ca9e9" d="m144.219996,283.54c-4.74,14.42 -44.6,47.63 -44.6,47.63s-12.35,-50.39 -7.6,-64.81a27.48,27.48 0 1 1 52.2,17.18z"/>
  <path id="svg_12" fill="#fc6681" d="m178.769996,422.99c-11.37,10 -62.55,18.6 -62.55,18.6s14.78,-49.73 26.15,-59.78a27.48,27.48 0 0 1 36.39,41.18l0.01,0z"/>
  <path id="svg_13" fill="#fc6681" d="m181.159996,534.39c-9.51,11.83 -58.5,28.9 -58.5,28.9s6.16,-51.52 15.67,-63.34a27.48,27.48 0 0 1 42.83,34.44z"/>
  <path id="svg_14" fill="#7ca9e9" d="m44.559996,348.66c13.21,7.46 65,5.18 65,5.18s-24.8,-45.57 -38,-53a27.48,27.48 0 1 0 -27,47.85l0,-0.03z"/>
  <path id="svg_15" fill="#7ca9e9" d="m48.999996,478.91c14.84,3.17 63.62,-14.52 63.62,-14.52s-37.28,-36.06 -52.15,-39.24a27.48,27.48 0 0 0 -11.47,53.75l0,0.01z"/>
  <path id="svg_16" fill="#7ca9e9" d="m70.689996,604.91c14.09,5.63 65.16,-3.56 65.16,-3.56s-30.67,-41.85 -44.76,-47.48a27.48,27.48 0 0 0 -20.39,51l-0.01,0.04z"/>
  <ellipse id="svg_17" opacity="0.1" fill="#7ca9e9" ry="33" rx="480.5" cy="672.58" cx="496.18"/>
  <path id="svg_22" fill="url(#f74e0c91-e046-415c-8916-3730a2c068f9)" d="m841.399996,536.07s-9.69,-190.21 -49.47,-257.53c0,0 -29.17,-53.28 -53.55,-68.82l0,-6.14c-39.78,-27.54 -88.73,0 -88.73,0l0,2.72l-10.2,8.5l-45.93,-0.16a22.13,22.13 0 0 0 -17.05,-8l-209.58,0a22.12,22.12 0 0 0 -16.3,7.14l-47.7,0s-2.81,-3.27 -10.2,-6.56l0,-3.64c-39.78,-27.54 -88.73,0 -88.73,0l0,7.39a13.1,13.1 0 0 0 -3.06,2.81s-40.29,27 -49.47,60.68c0,0 -49.47,148.4 -50.49,264.67s43.86,132.59 67.31,135.65s65.27,-1 106.07,-104l17.34,-60.17s3.06,-35.7 39.78,-13.26s69.35,-12.24 69.35,-12.24l137.7,0s45.85,28.52 87.71,6.04c0,0 16.32,-21.42 31.62,51c0,0 46.92,148.91 119.33,133.61s64.25,-139.69 64.25,-139.69z"/>
  <path id="svg_23" fill="#535461" d="m209.179996,219.08l0,-11s48,-27 87,0l0,10l-87,1z"/>
  <path id="svg_24" fill="#535461" d="m646.179996,219.08l0,-11s48,-27 87,0l0,10l-87,1z"/>
  <path id="svg_25" opacity="0.1" d="m209.179996,219.08l0,-11s48,-27 87,0l0,10l-87,1z"/>
  <path id="svg_26" opacity="0.1" d="m646.179996,219.08l0,-11s48,-27 87,0l0,10l-87,1z"/>
  <path id="svg_27" fill="#535461" d="m353.179996,218.08l-47,0s-12,-14 -52,-13s-48,13 -48,13s-39.5,26.5 -48.5,59.5c0,0 -48.5,145.5 -49.5,259.5s43,130 66,133s64,-1 104,-102l17,-59s3,-35 39,-13s68,-12 68,-12l135,0s45,28 86,6c0,0 16,-21 31,50c0,0 46,146 117,131s63,-137 63,-137s-9.5,-186.5 -48.5,-252.5c0,0 -37.5,-68.5 -62.5,-71.5c0,0 -54,-10 -75,-1l-12,10l-283,-1z"/>
  <circle id="svg_28" fill="#e2e2ec" r="87" cy="316.08" cx="244.18"/>
  <circle id="svg_29" fill="#e2e2ec" r="87" cy="316.08" cx="698.18"/>
  <path id="svg_30" fill="#535461" d="m259.339996,296.68l-11.6,10.26a5.38,5.38 0 0 1 -7.11,0l-11.62,-10.26a5.37,5.37 0 0 1 -1.82,-4l0,-28.23a5.38,5.38 0 0 1 5.38,-5.37l23.25,0a5.37,5.37 0 0 1 5.38,5.38l0,28.2a5.37,5.37 0 0 1 -1.86,4.02z"/>
  <path id="svg_31" fill="#535461" d="m259.339996,335.47l-11.6,-10.25a5.38,5.38 0 0 0 -7.11,0l-11.62,10.26a5.37,5.37 0 0 0 -1.82,4l0,28.2a5.37,5.37 0 0 0 5.38,5.38l23.25,0a5.37,5.37 0 0 0 5.38,-5.37l0,-28.2a5.37,5.37 0 0 0 -1.86,-4.02z"/>
  <path id="svg_32" fill="#535461" d="m224.789996,331.26l10.26,-11.62a5.38,5.38 0 0 0 0,-7.11l-10.26,-11.62a5.38,5.38 0 0 0 -4,-1.82l-28.2,0a5.38,5.38 0 0 0 -5.37,5.38l0,23.25a5.37,5.37 0 0 0 5.38,5.38l28.2,0a5.37,5.37 0 0 0 3.99,-1.84z"/>
  <path id="svg_33" fill="#535461" d="m263.579996,331.26l-10.24,-11.63a5.37,5.37 0 0 1 0,-7.11l10.26,-11.62a5.37,5.37 0 0 1 4,-1.82l28.2,0a5.37,5.37 0 0 1 5.38,5.38l0,23.25a5.37,5.37 0 0 1 -5.37,5.38l-28.2,0a5.37,5.37 0 0 1 -4.03,-1.83z"/>
  <polygon id="svg_34" stroke-width="2" stroke-miterlimit="10" stroke="#535461" fill="none" points="229.18 252.08 259.18 252.08 244.18 239.08 229.18 252.08"/>
  <polygon id="svg_35" stroke-width="2" stroke-miterlimit="10" stroke="#535461" fill="none" points="229.18 380.08 259.18 380.08 244.18 393.08 229.18 380.08"/>
  <polygon id="svg_36" stroke-width="2" stroke-miterlimit="10" stroke="#535461" fill="none" points="180.18 301.08 180.18 331.08 167.18 316.08 180.18 301.08"/>
  <polygon id="svg_37" stroke-width="2" stroke-miterlimit="10" stroke="#535461" fill="none" points="308.18 301.08 308.18 331.08 321.18 316.08 308.18 301.08"/>
  <circle id="svg_38" fill="#e2e2ec" r="63" cy="411.08" cx="362.18"/>
  <circle id="svg_39" fill="#535461" r="42" cy="401.08" cx="360.18"/>
  <circle id="svg_40" fill="#e2e2ec" r="63" cy="411.08" cx="580.18"/>
  <circle id="svg_41" fill="#535461" r="42" cy="401.08" cx="578.18"/>
  <circle id="svg_42" opacity="0.1" stroke-width="2" stroke-miterlimit="10" stroke="#000" fill="none" r="28" cy="401.08" cx="360.18"/>
  <circle id="svg_43" opacity="0.1" stroke-width="2" stroke-miterlimit="10" stroke="#000" fill="none" r="28" cy="401.08" cx="578.18"/>
  <circle id="svg_44" fill="#e2e2ec" r="18" cy="418.08" cx="473.18"/>
  <circle id="svg_45" fill="#e2e2ec" r="3.93" cy="358" cx="445.67"/>
  <circle id="svg_46" fill="#e2e2ec" r="3.93" cy="358" cx="460.39"/>
  <circle id="svg_47" fill="#e2e2ec" r="3.93" cy="376.65" cx="458.43"/>
  <circle id="svg_48" fill="#e2e2ec" r="4" cy="377.08" cx="472.18"/>
  <circle id="svg_49" fill="#e2e2ec" r="3.93" cy="376.65" cx="485.91"/>
  <circle id="svg_50" fill="#e2e2ec" r="3.93" cy="367.82" cx="452.54"/>
  <circle id="svg_51" fill="#e2e2ec" r="4" cy="368.08" cx="465.18"/>
  <circle id="svg_52" fill="#e2e2ec" r="4" cy="368.08" cx="478.18"/>
  <circle id="svg_53" fill="#e2e2ec" r="3.93" cy="367.82" cx="491.8"/>
  <circle id="svg_54" fill="#e2e2ec" r="4" cy="358.08" cx="472.18"/>
  <circle id="svg_55" fill="#e2e2ec" r="4" cy="358.08" cx="486.18"/>
  <circle id="svg_56" fill="#e2e2ec" r="3.93" cy="358" cx="497.69"/>
  <rect id="svg_57" fill="#e2e2ec" ry="8.5" rx="8.5" height="38" width="22" y="225.08" x="315.18"/>
  <rect id="svg_58" fill="#e2e2ec" ry="8.5" rx="8.5" height="38" width="22" y="225.08" x="607.18"/>
  <circle id="svg_59" fill="#535461" r="24" cy="263.08" cx="699.18"/>
  <circle id="svg_60" fill="#535461" r="24" cy="314.08" cx="648.18"/>
  <circle id="svg_61" fill="#535461" r="24" cy="311.08" cx="752.18"/>
  <circle id="svg_62" fill="#535461" r="24" cy="364.08" cx="703.18"/>
  <rect id="svg_63" fill="#e2e2ec" ry="21.75" rx="21.75" height="133" width="249" y="211.08" x="347.18"/>
  <polygon id="svg_64" stroke-width="2" stroke-miterlimit="10" stroke="#e2e2ec" fill="none" points="684.68 273.08 698.68 249.08 713.68 273.08 684.68 273.08"/>
  <rect id="svg_65" stroke-width="2" stroke-miterlimit="10" stroke="#e2e2ec" fill="none" height="22" width="25" y="303.08" x="635.68"/>
  <circle id="svg_66" stroke-width="2" stroke-miterlimit="10" stroke="#e2e2ec" fill="none" r="14" cy="311.08" cx="752.18"/>
  <line id="svg_67" stroke-width="2" stroke-miterlimit="10" stroke="#e2e2ec" fill="none" y2="375.33" x2="714.18" y1="352.83" x1="691.68"/>
  <line id="svg_68" stroke-width="2" stroke-miterlimit="10" stroke="#e2e2ec" fill="none" y2="374.83" x2="691.68" y1="352.83" x1="714.68"/>
  <path id="svg_69" fill="#7ca9e9" d="m343.989996,664.63c3,-2.29 5.85,-5 6.72,-8.27a7,7 0 0 0 -4.69,-8.42c-4.31,-1.34 -8.91,1.09 -12.41,3.55s-7.49,5.27 -12.06,4.75c4.73,-3.42 7,-9 5.68,-14a5.43,5.43 0 0 0 -1.58,-2.85c-2.39,-2.09 -6.73,-1.19 -9.59,0.45c-9.11,5.23 -11.65,15.32 -11.7,24.41c-0.92,-3.28 -0.14,-6.69 -0.17,-10.06s-1.15,-7.09 -4.63,-8.9a16.55,16.55 0 0 0 -7.06,-1.35c-4.09,-0.12 -8.66,0.21 -11.45,2.66c-3.47,3 -2.57,8.13 0.45,11.47s7.62,5.44 11.85,7.75c3.23,1.76 6.49,3.81 8.47,6.59a6,6 0 0 1 0.63,1.18l25.67,0a73.8,73.8 0 0 0 15.87,-8.96z"/>
  <path id="svg_73" fill="none" d="m804.169996,409.68"/>
 </g>
</svg>